# This file uses centimeters as units for non-parametric coordinates.

mtllib Chair Texture.mtl
g default
v -2.520092 6.391344 2.143675
v 2.224862 6.378390 2.004643
v -2.514927 6.707057 2.268017
v 2.230026 6.694101 2.128986
v -2.528603 6.933309 1.870101
v 2.216350 6.920354 1.731069
v -2.533768 6.617597 1.745758
v 2.211185 6.604642 1.606727
v 1.846189 6.605639 1.617422
v 1.859865 6.379386 2.015338
v 1.865030 6.695097 2.139681
v 1.851354 6.921351 1.741764
v 1.481193 6.606636 1.628116
v 1.494869 6.380383 2.026033
v 1.500034 6.696094 2.150375
v 1.486357 6.922347 1.752459
v 1.116196 6.607632 1.638811
v 1.129873 6.381380 2.036728
v 1.135037 6.697091 2.161070
v 1.121361 6.923343 1.763153
v 0.751200 6.608629 1.649506
v 0.764876 6.382376 2.047422
v 0.770041 6.698088 2.171765
v 0.756364 6.924340 1.773848
v 0.386203 6.609626 1.660201
v 0.399880 6.383373 2.058117
v 0.405045 6.699084 2.182460
v 0.391368 6.925336 1.784543
v 0.021207 6.610622 1.670895
v 0.034883 6.384369 2.068812
v 0.040048 6.700080 2.193154
v 0.026372 6.926333 1.795238
v -0.343789 6.611618 1.681590
v -0.330113 6.385366 2.079506
v -0.324948 6.701077 2.203849
v -0.338625 6.927330 1.805933
v -0.708786 6.612615 1.692285
v -0.695109 6.386363 2.090201
v -0.689945 6.702073 2.214544
v -0.703621 6.928326 1.816627
v -1.073782 6.613611 1.702980
v -1.060106 6.387359 2.100896
v -1.054941 6.703070 2.225238
v -1.068618 6.929323 1.827322
v -1.438779 6.614607 1.713674
v -1.425102 6.388355 2.111591
v -1.419938 6.704067 2.235933
v -1.433614 6.930319 1.838017
v -1.803775 6.615605 1.724369
v -1.790099 6.389352 2.122286
v -1.784934 6.705063 2.246628
v -1.798610 6.931315 1.848711
v -2.168772 6.616601 1.735064
v -2.155095 6.390348 2.132980
v -2.149930 6.706059 2.257322
v -2.163607 6.932312 1.859406
v -2.513858 6.752412 2.296827
v -2.148861 6.751651 2.286132
v -2.162289 7.031813 1.888209
v -2.527286 7.032572 1.898903
v 1.866227 6.740689 2.168487
v 1.852550 7.020852 1.770570
v 2.231223 6.739456 2.157792
v 2.217547 7.019618 1.759875
v 1.136234 6.743157 2.189876
v 1.122557 7.023319 1.791960
v 1.501230 6.741923 2.179182
v 1.487554 7.022086 1.781265
v 0.406241 6.745625 2.211266
v 0.392564 7.025787 1.813349
v 0.771237 6.744391 2.200571
v 0.757561 7.024554 1.802655
v -0.323873 6.747856 2.232659
v -0.337301 7.028018 1.834735
v 0.041245 6.746859 2.221960
v 0.027568 7.027021 1.824044
v -1.053868 6.749374 2.254048
v -1.067296 7.029536 1.856124
v -0.688871 6.748615 2.243353
v -0.702299 7.028776 1.845430
v -1.783863 6.750892 2.275438
v -1.797292 7.031054 1.877514
v -1.418866 6.750134 2.264743
v -1.432294 7.030295 1.866819
vt 0.838858 0.941387
vt 0.823865 0.871818
vt 0.850528 0.877110
vt 0.842610 0.906343
vt 0.846702 0.907874
vt 0.852725 0.880079
vt 0.885827 0.884392
vt 0.889414 0.908652
vt 0.886315 0.917176
vt 0.889576 0.877924
vt 0.917389 0.872942
vt 0.922950 0.900708
vt 0.782579 0.550082
vt 0.880348 0.523902
vt 0.854902 0.524117
vt 0.859450 0.490079
vt 0.882992 0.551973
vt 0.794139 0.572574
vt 0.819010 0.563073
vt 0.851014 0.550092
vt 0.820086 0.559504
vt 0.855487 0.489348
vt 0.846986 0.523924
vt 0.855951 0.555054
vt 0.887573 0.580429
vt 0.800097 0.597264
vt 0.825249 0.590324
vt 0.861594 0.583445
vt 0.892885 0.609868
vt 0.804843 0.624240
vt 0.830552 0.620244
vt 0.862906 0.610436
vt 0.832247 0.617498
vt 0.828212 0.592266
vt 0.859128 0.588659
vt 0.867824 0.614503
vt 0.897305 0.638813
vt 0.808603 0.651127
vt 0.834410 0.647164
vt 0.871565 0.642104
vt 0.901752 0.668425
vt 0.812311 0.679246
vt 0.838359 0.677010
vt 0.871548 0.668615
vt 0.840196 0.674365
vt 0.837337 0.649253
vt 0.868792 0.647169
vt 0.876288 0.672866
vt 0.905138 0.697532
vt 0.815395 0.706765
vt 0.841369 0.703943
vt 0.879166 0.700074
vt 0.908356 0.727216
vt 0.818641 0.735100
vt 0.844765 0.733878
vt 0.879106 0.726545
vt 0.846688 0.731310
vt 0.844277 0.706136
vt 0.875301 0.705409
vt 0.882709 0.730938
vt 0.910614 0.756446
vt 0.820918 0.762592
vt 0.846901 0.760877
vt 0.884711 0.758302
vt 0.912663 0.786214
vt 0.823294 0.790855
vt 0.849311 0.790966
vt 0.883678 0.784912
vt 0.851282 0.788484
vt 0.849714 0.763175
vt 0.880664 0.763506
vt 0.887091 0.789442
vt 0.913924 0.815414
vt 0.824594 0.818221
vt 0.850403 0.818260
vt 0.888139 0.817138
vt 0.915321 0.844898
vt 0.825602 0.846117
vt 0.851352 0.848844
vt 0.886151 0.844157
vt 0.853426 0.846436
vt 0.853066 0.820698
vt 0.883905 0.822233
vt 0.889421 0.848865
vt 0.953148 0.867606
vt 0.950670 0.840087
vt 0.949136 0.811526
vt 0.947646 0.782322
vt 0.945730 0.752611
vt 0.943267 0.722769
vt 0.940144 0.692821
vt 0.936419 0.663032
vt 0.932061 0.633447
vt 0.927382 0.604335
vt 0.922562 0.575708
vt 0.918510 0.547806
vt 0.884896 0.489864
vt 0.915556 0.519859
vt 0.816608 0.898688
vt 0.957557 0.894785
vt 0.808091 0.536075
vt 0.804357 0.538325
vt 0.897013 0.905951
vt 0.846395 0.912579
vt 0.878778 0.945983
vn 0.026248 -0.366696 0.929971
vn 0.026248 -0.366696 0.929971
vn 0.026248 -0.366696 0.929971
vn 0.026248 -0.366696 0.929971
vn 0.018556 0.817825 0.575167
vn 0.018556 0.817826 0.575167
vn 0.018556 0.817826 0.575167
vn 0.018556 0.817826 0.575167
vn -0.026248 0.366696 -0.929970
vn -0.026248 0.366697 -0.929970
vn -0.026248 0.366697 -0.929970
vn -0.026248 0.366697 -0.929970
vn -0.016840 -0.869428 -0.493773
vn -0.016840 -0.869428 -0.493773
vn -0.016840 -0.869428 -0.493773
vn -0.016840 -0.869428 -0.493773
vn 0.999361 -0.002304 -0.035658
vn 0.999361 -0.002304 -0.035658
vn 0.999361 -0.002304 -0.035658
vn 0.999361 -0.002304 -0.035658
vn -0.999361 0.002303 0.035658
vn -0.999361 0.002303 0.035658
vn -0.999361 0.002303 0.035658
vn -0.999361 0.002303 0.035658
vn -0.016843 -0.869428 -0.493772
vn -0.016843 -0.869428 -0.493772
vn -0.016843 -0.869428 -0.493772
vn -0.016843 -0.869428 -0.493772
vn 0.026248 -0.366697 0.929970
vn 0.026248 -0.366697 0.929970
vn 0.026249 -0.366697 0.929970
vn 0.026249 -0.366697 0.929970
vn 0.019616 0.817824 0.575134
vn 0.019616 0.817824 0.575134
vn 0.019616 0.817824 0.575134
vn 0.019616 0.817824 0.575134
vn -0.026247 0.366696 -0.929971
vn -0.026247 0.366696 -0.929971
vn -0.026247 0.366696 -0.929971
vn -0.026247 0.366696 -0.929971
vn -0.016842 -0.869429 -0.493772
vn -0.016842 -0.869429 -0.493772
vn 0.026248 -0.366697 0.929970
vn 0.026248 -0.366697 0.929970
vn 0.016841 0.869427 0.493774
vn 0.016841 0.869427 0.493774
vn 0.016841 0.869427 0.493774
vn 0.016841 0.869427 0.493774
vn -0.026248 0.366696 -0.929970
vn -0.026248 0.366696 -0.929970
vn -0.016841 -0.869428 -0.493772
vn -0.016841 -0.869428 -0.493772
vn 0.026248 -0.366697 0.929970
vn 0.026248 -0.366697 0.929970
vn 0.019616 0.817823 0.575135
vn 0.019616 0.817824 0.575135
vn 0.019616 0.817823 0.575135
vn 0.019616 0.817823 0.575135
vn -0.026248 0.366697 -0.929970
vn -0.026248 0.366697 -0.929970
vn -0.016842 -0.869428 -0.493773
vn -0.016842 -0.869428 -0.493773
vn 0.026248 -0.366697 0.929970
vn 0.026248 -0.366697 0.929970
vn 0.016843 0.869429 0.493772
vn 0.016843 0.869429 0.493772
vn 0.016843 0.869429 0.493772
vn 0.016843 0.869429 0.493772
vn -0.026248 0.366697 -0.929970
vn -0.026248 0.366697 -0.929970
vn -0.016842 -0.869428 -0.493773
vn -0.016842 -0.869428 -0.493773
vn 0.026248 -0.366697 0.929970
vn 0.026248 -0.366697 0.929970
vn 0.019616 0.817824 0.575134
vn 0.019616 0.817824 0.575134
vn 0.019616 0.817824 0.575134
vn 0.019616 0.817824 0.575134
vn -0.026248 0.366698 -0.929970
vn -0.026248 0.366698 -0.929970
vn -0.016841 -0.869428 -0.493773
vn -0.016841 -0.869428 -0.493773
vn 0.026248 -0.366697 0.929970
vn 0.026248 -0.366697 0.929970
vn 0.016840 0.869428 0.493773
vn 0.016840 0.869428 0.493773
vn 0.016840 0.869428 0.493773
vn 0.016840 0.869428 0.493773
vn -0.026248 0.366697 -0.929970
vn -0.026248 0.366697 -0.929970
vn -0.016841 -0.869428 -0.493772
vn -0.016841 -0.869428 -0.493772
vn 0.026248 -0.366698 0.929970
vn 0.026248 -0.366698 0.929970
vn 0.019087 0.817824 0.575152
vn 0.019087 0.817824 0.575152
vn 0.019087 0.817824 0.575152
vn 0.019087 0.817824 0.575152
vn -0.026248 0.366696 -0.929970
vn -0.026248 0.366696 -0.929970
vn -0.016842 -0.869428 -0.493772
vn -0.016842 -0.869429 -0.493772
vn 0.026248 -0.366697 0.929970
vn 0.026248 -0.366697 0.929970
vn 0.016842 0.869428 0.493773
vn 0.016842 0.869428 0.493773
vn 0.016842 0.869428 0.493773
vn 0.016842 0.869428 0.493773
vn -0.026248 0.366696 -0.929970
vn -0.026248 0.366696 -0.929970
vn -0.016841 -0.869429 -0.493771
vn -0.016841 -0.869429 -0.493771
vn 0.026248 -0.366697 0.929970
vn 0.026248 -0.366697 0.929970
vn 0.018556 0.817824 0.575169
vn 0.018556 0.817824 0.575169
vn 0.018556 0.817824 0.575169
vn 0.018556 0.817824 0.575169
vn -0.026248 0.366697 -0.929970
vn -0.026248 0.366697 -0.929970
vn -0.016842 -0.869429 -0.493771
vn -0.016842 -0.869429 -0.493771
vn 0.026248 -0.366697 0.929970
vn 0.026248 -0.366697 0.929970
vn 0.016842 0.869428 0.493772
vn 0.016842 0.869428 0.493772
vn 0.016842 0.869428 0.493772
vn 0.016842 0.869428 0.493772
vn -0.026248 0.366696 -0.929970
vn -0.026248 0.366696 -0.929970
vn -0.016842 -0.869428 -0.493773
vn -0.016842 -0.869428 -0.493773
vn 0.026248 -0.366696 0.929971
vn 0.026248 -0.366696 0.929971
vn 0.018553 0.817824 0.575169
vn 0.018553 0.817824 0.575169
vn 0.018553 0.817824 0.575169
vn 0.018553 0.817824 0.575169
vn -0.026248 0.366697 -0.929970
vn -0.026248 0.366697 -0.929970
vn 0.016842 0.869429 0.493772
vn 0.016842 0.869429 0.493772
vn 0.016842 0.869429 0.493772
vn 0.016842 0.869429 0.493772
vn 0.023448 -0.535434 0.844252
vn 0.023448 -0.535434 0.844251
vn 0.023448 -0.535434 0.844252
vn 0.023448 -0.535434 0.844251
vn 0.999366 -0.002344 -0.035525
vn 0.999366 -0.002344 -0.035525
vn 0.999366 -0.002344 -0.035525
vn 0.999366 -0.002344 -0.035525
vn -0.027459 0.278593 -0.960017
vn -0.027459 0.278593 -0.960017
vn -0.027459 0.278593 -0.960017
vn -0.027459 0.278593 -0.960017
vn -0.999366 0.002336 0.035522
vn -0.999366 0.002336 0.035522
vn -0.999366 0.002336 0.035522
vn -0.999366 0.002336 0.035522
vn -0.999357 0.002270 0.035793
vn -0.999357 0.002270 0.035793
vn -0.999357 0.002270 0.035793
vn -0.999357 0.002270 0.035793
vn 0.023103 -0.535431 0.844263
vn 0.023103 -0.535431 0.844263
vn 0.023103 -0.535431 0.844263
vn 0.023103 -0.535431 0.844263
vn 0.999357 -0.002274 -0.035797
vn 0.999357 -0.002274 -0.035797
vn 0.999357 -0.002274 -0.035797
vn 0.999357 -0.002274 -0.035797
vn -0.027278 0.278592 -0.960022
vn -0.027278 0.278592 -0.960022
vn -0.027278 0.278592 -0.960022
vn -0.027278 0.278592 -0.960022
vn -0.999357 0.002259 0.035786
vn -0.999357 0.002259 0.035786
vn -0.999357 0.002259 0.035786
vn -0.999357 0.002259 0.035786
vn 0.023186 -0.531466 0.846762
vn 0.023186 -0.531466 0.846762
vn 0.023186 -0.531466 0.846762
vn 0.023186 -0.531466 0.846762
vn 0.999357 -0.002263 -0.035789
vn 0.999357 -0.002263 -0.035789
vn 0.999357 -0.002263 -0.035789
vn 0.999357 -0.002263 -0.035789
vn -0.027293 0.277367 -0.960376
vn -0.027293 0.277367 -0.960377
vn -0.027293 0.277367 -0.960377
vn -0.027293 0.277367 -0.960376
vn -0.999357 0.002246 0.035778
vn -0.999357 0.002246 0.035778
vn -0.999357 0.002246 0.035778
vn -0.999357 0.002246 0.035778
vn 0.023270 -0.527552 0.849204
vn 0.023270 -0.527552 0.849204
vn 0.023270 -0.527552 0.849204
vn 0.023270 -0.527552 0.849204
vn 0.999357 -0.002252 -0.035782
vn 0.999357 -0.002252 -0.035782
vn 0.999357 -0.002252 -0.035782
vn 0.999357 -0.002252 -0.035782
vn -0.027306 0.276158 -0.960724
vn -0.027306 0.276158 -0.960724
vn -0.027306 0.276158 -0.960724
vn -0.027306 0.276158 -0.960724
vn -0.999365 0.002367 0.035543
vn -0.999365 0.002367 0.035543
vn -0.999365 0.002367 0.035543
vn -0.999365 0.002367 0.035543
vn 0.023504 -0.524642 0.850998
vn 0.023504 -0.524642 0.850998
vn 0.023504 -0.524642 0.850998
vn 0.023504 -0.524642 0.850998
vn 0.999357 -0.002241 -0.035774
vn 0.999357 -0.002241 -0.035774
vn 0.999357 -0.002241 -0.035774
vn 0.999357 -0.002241 -0.035774
vn -0.027407 0.275256 -0.960980
vn -0.027407 0.275256 -0.960980
vn -0.027407 0.275256 -0.960980
vn -0.027407 0.275256 -0.960980
vn -0.999366 0.002357 0.035536
vn -0.999366 0.002357 0.035536
vn -0.999366 0.002357 0.035536
vn -0.999366 0.002357 0.035536
vn 0.023613 -0.527552 0.849194
vn 0.023613 -0.527552 0.849194
vn 0.023613 -0.527552 0.849194
vn 0.023613 -0.527552 0.849194
vn 0.999366 -0.002362 -0.035539
vn 0.999365 -0.002362 -0.035539
vn 0.999366 -0.002362 -0.035539
vn 0.999366 -0.002362 -0.035539
vn -0.027486 0.276157 -0.960720
vn -0.027486 0.276157 -0.960720
vn -0.027486 0.276157 -0.960720
vn -0.027486 0.276157 -0.960720
vn -0.999366 0.002344 0.035529
vn -0.999366 0.002344 0.035529
vn -0.999366 0.002344 0.035529
vn -0.999366 0.002344 0.035529
vn 0.023533 -0.531466 0.846753
vn 0.023533 -0.531466 0.846753
vn 0.023533 -0.531466 0.846753
vn 0.023533 -0.531466 0.846753
vn 0.999366 -0.002352 -0.035532
vn 0.999366 -0.002352 -0.035532
vn 0.999366 -0.002352 -0.035532
vn 0.999366 -0.002352 -0.035532
vn -0.027472 0.277372 -0.960370
vn -0.027472 0.277372 -0.960370
vn -0.027472 0.277372 -0.960370
vn -0.027472 0.277372 -0.960370
s 1
g Chair_top Chair_Base
usemtl initialShadingGroup
f 1/99/1 54/2/2 55/3/3 3/4/4
s off
f 57/5/5 58/6/6 59/7/7 60/8/8
s 2
f 5/103/9 56/10/10 53/11/11 7/12/12
s 3
f 7/12/13 53/11/14 54/85/15 1/100/16
s off
f 2/97/17 8/14/18 6/15/19 4/16/20
f 7/105/21 1/1/22 3/104/23 5/9/24
s 3
f 9/17/25 8/14/26 2/98/27 10/96/28
s 1
f 11/19/29 10/18/30 2/13/31 4/102/32
s off
f 62/20/33 61/21/34 63/101/35 64/23/36
s 2
f 9/17/37 12/24/38 6/15/39 8/14/40
s 3
f 13/25/41 9/17/25 10/96/28 14/95/42
s 1
f 15/27/43 14/26/44 10/18/30 11/19/29
s off
f 16/28/45 15/27/46 11/19/47 12/24/48
s 2
f 13/25/49 16/28/50 12/24/38 9/17/37
s 3
f 17/29/51 13/25/41 14/95/42 18/94/52
s 1
f 19/31/53 18/30/54 14/26/44 15/27/43
s off
f 66/32/55 65/33/56 67/34/57 68/35/58
s 2
f 17/29/59 20/36/60 16/28/50 13/25/49
s 3
f 21/37/61 17/29/51 18/94/52 22/93/62
s 1
f 23/39/63 22/38/64 18/30/54 19/31/53
s off
f 24/40/65 23/39/66 19/31/67 20/36/68
s 2
f 21/37/69 24/40/70 20/36/60 17/29/59
s 3
f 25/41/71 21/37/61 22/93/62 26/92/72
s 1
f 27/43/73 26/42/74 22/38/64 23/39/63
s off
f 70/44/75 69/45/76 71/46/77 72/47/78
s 2
f 25/41/79 28/48/80 24/40/70 21/37/69
s 3
f 29/49/81 25/41/71 26/92/72 30/91/82
s 1
f 31/51/83 30/50/84 26/42/74 27/43/73
s off
f 32/52/85 31/51/86 27/43/87 28/48/88
s 2
f 29/49/89 32/52/90 28/48/80 25/41/79
s 3
f 33/53/91 29/49/81 30/91/82 34/90/92
s 1
f 35/55/93 34/54/94 30/50/84 31/51/83
s off
f 74/56/95 73/57/96 75/58/97 76/59/98
s 2
f 33/53/99 36/60/100 32/52/90 29/49/89
s 3
f 37/61/101 33/53/91 34/90/92 38/89/102
s 1
f 39/63/103 38/62/104 34/54/94 35/55/93
s off
f 40/64/105 39/63/106 35/55/107 36/60/108
s 2
f 37/61/109 40/64/110 36/60/100 33/53/99
s 3
f 41/65/111 37/61/101 38/89/102 42/88/112
s 1
f 43/67/113 42/66/114 38/62/104 39/63/103
s off
f 78/68/115 77/69/116 79/70/117 80/71/118
s 2
f 41/65/119 44/72/120 40/64/110 37/61/109
s 3
f 45/73/121 41/65/111 42/88/112 46/87/122
s 1
f 47/75/123 46/74/124 42/66/114 43/67/113
s off
f 48/76/125 47/75/126 43/67/127 44/72/128
s 2
f 45/73/129 48/76/130 44/72/120 41/65/119
s 3
f 49/77/131 45/73/121 46/87/122 50/86/132
s 1
f 51/79/133 50/78/134 46/74/124 47/75/123
s off
f 82/80/135 81/81/136 83/82/137 84/83/138
s 2
f 49/77/139 52/84/140 48/76/130 45/73/129
s 3
f 53/11/14 49/77/131 50/86/132 54/85/15
s 1
f 55/3/3 54/2/2 50/78/134 51/79/133
s off
f 56/10/141 55/3/142 51/79/143 52/84/144
s 2
f 53/11/11 56/10/10 52/84/140 49/77/139
s off
f 3/4/145 55/3/146 58/6/147 57/5/148
f 55/3/149 56/10/150 59/7/151 58/6/152
f 56/10/153 5/103/154 60/8/155 59/7/156
f 5/9/157 3/104/158 57/5/159 60/8/160
f 12/24/161 11/19/162 61/21/163 62/20/164
f 11/19/165 4/102/166 63/101/167 61/21/168
f 4/16/169 6/15/170 64/23/171 63/22/172
f 6/15/173 12/24/174 62/20/175 64/23/176
f 20/36/177 19/31/178 65/33/179 66/32/180
f 19/31/181 15/27/182 67/34/183 65/33/184
f 15/27/185 16/28/186 68/35/187 67/34/188
f 16/28/189 20/36/190 66/32/191 68/35/192
f 28/48/193 27/43/194 69/45/195 70/44/196
f 27/43/197 23/39/198 71/46/199 69/45/200
f 23/39/201 24/40/202 72/47/203 71/46/204
f 24/40/205 28/48/206 70/44/207 72/47/208
f 36/60/209 35/55/210 73/57/211 74/56/212
f 35/55/213 31/51/214 75/58/215 73/57/216
f 31/51/217 32/52/218 76/59/219 75/58/220
f 32/52/221 36/60/222 74/56/223 76/59/224
f 44/72/225 43/67/226 77/69/227 78/68/228
f 43/67/229 39/63/230 79/70/231 77/69/232
f 39/63/233 40/64/234 80/71/235 79/70/236
f 40/64/237 44/72/238 78/68/239 80/71/240
f 52/84/241 51/79/242 81/81/243 82/80/244
f 51/79/245 47/75/246 83/82/247 81/81/248
f 47/75/249 48/76/250 84/83/251 83/82/252
f 48/76/253 52/84/254 82/80/255 84/83/256
g default
v -2.650574 2.896563 2.433220
v 2.297911 2.896563 2.433220
v -2.650574 3.350208 2.433220
v 2.297911 3.350208 2.433220
v -2.650574 3.224824 -2.433220
v 2.297911 3.224824 -2.433220
v -2.650574 3.021947 -2.433220
v 2.297911 3.021947 -2.433220
v 2.644838 2.926819 1.258926
v -2.997501 2.926819 1.258926
v -2.997501 3.319952 1.258926
v 2.644838 3.319952 1.258926
v 2.605178 3.009842 -1.963413
v -2.957841 3.009842 -1.963413
v -2.957841 3.236928 -1.963413
v 2.605178 3.236928 -1.963413
vt 0.071982 0.552739
vt 0.450693 0.578072
vt 0.073499 0.593774
vt 0.041389 0.925377
vt 0.434141 0.603599
vt 0.437264 0.962520
vt 0.063888 0.959688
vt 0.096904 0.180183
vt 0.439776 0.976320
vt 0.053007 0.965639
vt 0.483258 0.489949
vt 0.040480 0.680211
vt 0.461076 0.927636
vt 0.477363 0.931809
vt 0.019905 0.922564
vt 0.460823 0.687189
vt 0.070982 0.214576
vt 0.051445 0.461063
vt 0.496725 0.243056
vt 0.012011 0.660898
vt 0.490567 0.680725
vt 0.475615 0.205516
vn 0.000000 0.000000 1.000000
vn 0.000000 0.000000 1.000000
vn 0.000000 0.000000 1.000000
vn 0.000000 0.000000 1.000000
vn 0.000000 0.999668 -0.025757
vn 0.000000 0.999668 -0.025757
vn 0.000000 0.999668 -0.025757
vn 0.000000 0.999668 -0.025757
vn 0.000000 0.000000 -1.000000
vn 0.000000 0.000000 -1.000000
vn 0.000000 0.000000 -1.000000
vn 0.000000 0.000000 -1.000000
vn 0.000000 -0.999668 -0.025757
vn 0.000000 -0.999668 -0.025757
vn 0.000000 -0.999668 -0.025757
vn 0.000000 -0.999668 -0.025757
vn 0.997585 0.000000 -0.069456
vn 0.997585 0.000000 -0.069456
vn 0.836900 0.000000 -0.547356
vn 0.836900 0.000000 -0.547356
vn -0.836900 0.000000 -0.547356
vn -0.997585 0.000000 -0.069456
vn -0.997585 0.000000 -0.069456
vn -0.836900 0.000000 -0.547356
vn 0.000000 -0.999668 -0.025757
vn 0.000000 -0.999668 -0.025757
vn 0.000000 -0.999668 -0.025757
vn 0.000000 -0.999668 -0.025757
vn -0.995782 0.000000 0.091754
vn -0.995782 0.000000 0.091754
vn -0.959023 0.000000 0.283329
vn -0.959023 0.000000 0.283329
vn 0.000000 0.999668 -0.025756
vn 0.000000 0.999668 -0.025756
vn 0.000000 0.999668 -0.025757
vn 0.000000 0.999668 -0.025757
vn 0.959023 0.000000 0.283329
vn 0.995782 0.000000 0.091754
vn 0.995782 0.000000 0.091754
vn 0.959023 0.000000 0.283329
s off
g Chair_Base
usemtl lambert3SG
f 85/106/257 86/107/258 88/110/259 87/108/260
s 1
f 99/109/261 100/118/262 90/111/263 89/112/264
s off
f 89/112/265 90/111/266 92/114/267 91/115/268
s 2
f 91/113/269 92/127/270 97/124/271 98/122/272
s 3
f 100/118/273 97/119/274 92/114/275 90/111/276
s 4
f 91/115/277 98/120/278 99/109/279 89/112/280
s 2
f 94/123/281 93/116/282 86/107/283 85/106/284
s 4
f 95/117/285 94/125/286 85/106/287 87/108/288
s 1
f 87/108/289 88/110/290 96/121/291 95/117/292
s 3
f 86/107/293 93/126/294 96/121/295 88/110/296
s 2
f 98/122/272 97/124/271 93/116/282 94/123/281
s 4
f 99/109/279 98/120/278 94/125/286 95/117/285
s 1
f 95/117/292 96/121/291 100/118/262 99/109/261
s 3
f 96/121/295 93/126/294 97/119/274 100/118/273
